<svg width="1024" height="1024" viewBox="0 0 1024 1024" fill="none" xmlns="http://www.w3.org/2000/svg">
<path d="M912.5 934.5L568.5 964.5L143 955L91 901.5V330.5L228.5 154L267 67.5H318L349.5 154H669L700.5 75.5H765L783 143L929 221.5L936 835.5L912.5 934.5Z" fill="#E7E3D4"/>
<path d="M89.5 742.5C61 603.5 434 157 824.5 637C829.269 636.793 837.083 639.591 842.5 643.276C845.791 645.515 848.198 648.081 848.5 650.5C849.344 657.249 841.893 676.931 814.5 684.246C805.363 686.686 794.007 687.751 780 686.5C724 681.5 284.5 527 580 949.5H397.5H163.255C130.923 949.5 104.02 924.655 101.451 892.426L89.5 742.5Z" fill="#FCB832"/>
<path d="M842.5 643.276C837.083 639.591 829.269 636.793 824.5 637C434 157 61 603.5 89.5 742.5L101.451 892.426C104.02 924.655 130.923 949.5 163.255 949.5H397.5H580C284.5 527 724 681.5 780 686.5C794.007 687.751 805.363 686.686 814.5 684.246M842.5 643.276C845.791 645.515 848.198 648.081 848.5 650.5C849.344 657.249 841.893 676.931 814.5 684.246M842.5 643.276L814.5 684.246" stroke="#001B38" stroke-width="36"/>
<rect x="90.5" y="158.5" width="843" height="800" rx="82.5" stroke="#001B38" stroke-width="57"/>
<path d="M925 330.5H109V186.5H925V330.5Z" fill="#001B38"/>
<path d="M343 163C343 134.557 343 64 291.5 64C240 64 240 134.557 240 163" stroke="#001B38" stroke-width="51"/>
<path d="M783 163C783 134.557 783 64 731.5 64C680 64 680 134.557 680 163" stroke="#001B38" stroke-width="51"/>
<path d="M667.5 805.5L728 866L836.5 757.5" stroke="#001B38" stroke-width="36" stroke-linecap="round"/>
<circle cx="612.5" cy="539.5" r="23.5" fill="#001B38"/>
<path d="M368 965.5C211 575.5 572 524 816 684.5L797.5 697.5L729 690.5L632 668L533.5 663.5L488 697.5L497.5 792.5L596.5 965.5H368Z" fill="#001B38"/>
<path d="M285.5 624.5C195 670.5 137.5 815.5 106.5 938.5L397.5 953C176.5 909 228.5 701 285.5 624.5Z" fill="#001B38"/>
<path d="M586.368 438.427C569.368 386.927 510.868 359.927 523.868 421.427L586.368 438.427Z" fill="#001B38" stroke="#001B38" stroke-width="26"/>
<path d="M523 449.5C493 335 331.5 395 471 488L523 449.5Z" fill="#FCB832"/>
<path d="M523 449.5C493 335 331.5 395 471 488" stroke="#001B38" stroke-width="25" stroke-linecap="round"/>
</svg>
